<?xml version="1.0" standalone="no"?>
<!DOCTYPE svg PUBLIC "-//W3C//DTD SVG 20010904//EN"
 "http://www.w3.org/TR/2001/REC-SVG-20010904/DTD/svg10.dtd">
<svg version="1.0" xmlns="http://www.w3.org/2000/svg"
 width="512.000000pt" height="512.000000pt" viewBox="0 0 512.000000 512.000000"
 preserveAspectRatio="xMidYMid meet">
<metadata>
Created by potrace 1.14, written by Peter Selinger 2001-2017
</metadata>
<g transform="translate(0.000000,512.000000) scale(0.100000,-0.100000)"
fill="#000000" stroke="none">
<path d="M2746 4903 c-61 -16 -235 -135 -371 -254 -33 -29 -131 -124 -218
-212 -503 -507 -900 -1114 -1079 -1650 -42 -125 -82 -279 -92 -357 -4 -25 -10
-72 -15 -105 -16 -110 -6 -379 18 -495 103 -501 419 -913 870 -1134 439 -215
973 -215 1406 1 88 44 216 124 285 179 46 38 219 211 247 249 76 100 92 123
107 150 9 17 25 44 36 60 64 101 158 336 176 442 3 15 7 36 10 46 37 122 40
438 5 603 -39 189 -101 341 -206 509 -100 160 -203 286 -419 509 -212 221
-322 340 -371 401 -210 264 -288 466 -281 720 2 66 7 131 10 145 26 104 11
160 -49 186 -36 15 -38 15 -69 7z"/>
</g>
</svg>
